# xmcd
#
# Track frame offsets: 
#        150
#        19308
#        31336
#        43017
#        56704
#        69426
#        85884
#        104957
#        119650
#
# Disc length: 1882 seconds
#
# Revision: 0
# Processed by: cddbd v1.5.2PL0 Copyright (c) Steve Scherf et al.
# Submitted via: ExactAudioCopyFreeDBPlugin 1.0
#
DISCID=82075809
DTITLE=Andres Roots - mono
DYEAR=2017
DGENRE=Blues
TTITLE0=Soup City Blues #1
TTITLE1=Django
TTITLE2=Station Blues Medley
TTITLE3=Room Service
TTITLE4=Blues For Halvo
TTITLE5=Trouble In Mind
TTITLE6=Down By The Riverside
TTITLE7=Roll and Tumble
TTITLE8=Soup City Blues #2
EXTD=
EXTT0=
EXTT1=
EXTT2=
EXTT3=
EXTT4=
EXTT5=
EXTT6=
EXTT7=
EXTT8=
PLAYORDER=
